<svg xmlns="http://www.w3.org/2000/svg" width="25" height="24" viewBox="0 0 25 24" fill="none"> <g clip-path="url(#clip0_6645_75477)"> <path fill-rule="evenodd" clip-rule="evenodd" d="M12.5996 4.06982C10.9507 4.06982 9.59961 5.43179 9.59961 7.12982C9.59961 8.82786 10.9507 10.1898 12.5996 10.1898C14.2485 10.1898 15.5996 8.82786 15.5996 7.12982C15.5996 5.43179 14.2485 4.06982 12.5996 4.06982ZM8.59961 7.12982C8.59961 4.89559 10.3825 3.06982 12.5996 3.06982C14.8167 3.06982 16.5996 4.89559 16.5996 7.12982C16.5996 9.36405 14.8167 11.1898 12.5996 11.1898C10.3825 11.1898 8.59961 9.36405 8.59961 7.12982ZM11.8696 13.7898C8.43113 13.7898 5.59961 16.7399 5.59961 20.4398C5.59961 20.716 5.37575 20.9398 5.09961 20.9398C4.82347 20.9398 4.59961 20.716 4.59961 20.4398C4.59961 16.2398 7.82809 12.7898 11.8696 12.7898H13.1296C17.1711 12.7898 20.3996 16.2398 20.3996 20.4398C20.3996 20.716 20.1758 20.9398 19.8996 20.9398C19.6235 20.9398 19.3996 20.716 19.3996 20.4398C19.3996 16.7399 16.5681 13.7898 13.1296 13.7898H11.8696Z" fill="#211F1D"></path> </g> <defs> <clipPath id="clip0_6645_75477"> <rect width="24" height="24" fill="white" transform="translate(0.5)"></rect> </clipPath> </defs> </svg>