<svg width="217" height="18" viewBox="0 0 217 18" fill="none" xmlns="http://www.w3.org/2000/svg">
<path d="M170.603 0.226591H182.932V3.08384H173.662V6.68355H181.15V9.51943H173.662V13.2531H182.932V16.0875H170.603V0.226591ZM108.048 0.00143125C112.751 -0.0655467 116.282 3.44438 116.215 8.14566C116.284 12.8484 112.751 16.3797 108.048 16.3127C103.346 16.3797 99.837 12.8484 99.904 8.14566C99.8356 3.44296 103.346 -0.0655467 108.048 0.00143125ZM108.048 13.3657C110.972 13.3657 112.975 11.1611 112.975 8.14566C112.975 5.19863 110.972 2.97126 108.048 2.97126C105.101 2.97126 103.143 5.19863 103.143 8.14566C103.143 11.1611 105.101 13.3657 108.048 13.3657ZM148.462 6.68498H139.935V0.226591H136.876V16.0875H139.935V9.57358H148.462V16.0875H151.521V0.226591H148.462V6.68498ZM190.263 0.226591H187.203V16.0875H198.453V13.2531H190.263V0.226591ZM208.427 0.226591C213.151 0.158188 217.066 3.48856 216.999 8.14566C217.066 12.8256 213.151 16.1545 208.427 16.0875H202.037V0.226591H208.427ZM208.427 13.2531C211.464 13.2531 213.759 11.1611 213.759 8.14566C213.759 5.13023 211.465 3.08384 208.427 3.08384H205.096V13.2531H208.427ZM93.3188 11.9734L85.481 0.226591H81.4039V16.0875H84.3894V3.98163L92.4766 16.0918L96.2829 16.0861V0.226591H93.3188V11.9734ZM66.5804 0.226591V3.06104H70.334V13.2531H66.5804V16.0875H77.1315V13.2531H73.3936V3.06104H77.1315V0.226591H66.5804ZM155.789 0.226591V3.06104H159.543V13.2531H155.789V16.0875H166.34V13.2531H162.603V3.06104H166.34V0.226591H155.789ZM37.4592 10.3189L44.0786 16.0875H39.6623L33.0472 10.3189V16.0875H29.9876V0.226591H38.2444C41.3938 0.226591 43.6212 2.38556 43.6212 5.4466C43.6212 8.39363 41.522 10.3203 38.4838 10.3203H37.4592V10.3189ZM33.0472 7.85353H37.9964C39.3688 7.85353 40.382 6.86311 40.382 5.4466C40.382 4.07426 39.3688 3.08384 37.9964 3.08384H33.0472V7.85353ZM59.257 6.68498H50.7308V0.226591H47.6712V16.0875H50.7308V9.57358H59.257V16.0875H62.3166V0.226591H59.257V6.68498ZM7.67111 0.226591L9.05912 3.08384H12.3054L12.304 10.3175L7.66826 13.6521L3.03823 10.3175L3.04108 3.08242H6.28168L7.67111 0.226591H0V11.6684L7.66826 17.1877L15.3408 11.6698V0.226591H7.67111ZM128.519 6.95146L124.867 6.11353C122.936 5.63185 122.669 5.07465 122.669 4.54311C122.669 3.00689 125.148 2.84158 126.214 2.84158C128.254 2.84158 129.963 3.42871 131.428 4.45048L132.985 2.18463C132.735 1.97372 132.38 1.69156 132.001 1.4721C130.834 0.76099 128.954 0.00285631 126.236 0.00285631C122.094 0.00285631 119.311 1.86969 119.311 4.64714C119.311 6.69923 120.783 8.10006 123.7 8.81544L127.304 9.61205C129.618 10.2248 129.803 10.7934 129.803 11.476C129.803 12.7999 128.595 13.4711 126.212 13.4711C124.05 13.4711 122.142 12.874 120.224 11.5972L118.708 13.8359L119.487 14.3946C121.344 15.6301 123.75 16.3098 126.261 16.3098C130.482 16.3098 133.211 14.3718 133.211 11.372C133.211 9.15318 131.723 7.7495 128.519 6.95146Z" fill="#211F1D"/>
</svg>
