<svg xmlns="http://www.w3.org/2000/svg" width="18" height="18" viewBox="0 0 18 18" fill="none"> <path fill-rule="evenodd" clip-rule="evenodd" d="M8.11111 1.5C4.4599 1.5 1.5 4.4599 1.5 8.11111C1.5 11.7623 4.4599 14.7222 8.11111 14.7222C9.90448 14.7222 11.5311 14.0082 12.7221 12.8488C12.7389 12.8245 12.7581 12.8014 12.7798 12.7798C12.8014 12.7581 12.8245 12.7389 12.8488 12.7221C14.0082 11.5311 14.7222 9.90448 14.7222 8.11111C14.7222 4.4599 11.7623 1.5 8.11111 1.5ZM13.835 13.1279C15.0099 11.7884 15.7222 10.0329 15.7222 8.11111C15.7222 3.90761 12.3146 0.5 8.11111 0.5C3.90761 0.5 0.5 3.90761 0.5 8.11111C0.5 12.3146 3.90761 15.7222 8.11111 15.7222C10.0329 15.7222 11.7884 15.0099 13.1279 13.835L16.6464 17.3536C16.8417 17.5488 17.1583 17.5488 17.3536 17.3536C17.5488 17.1583 17.5488 16.8417 17.3536 16.6464L13.835 13.1279Z" fill="#211F1D"></path> </svg>